<?xml version="1.0" encoding="utf-8"?>
<!-- Generator: Adobe Illustrator 25.3.1, SVG Export Plug-In . SVG Version: 6.00 Build 0)  -->
<svg version="1.1" id="Camada_1" xmlns="http://www.w3.org/2000/svg" xmlns:xlink="http://www.w3.org/1999/xlink" x="0px" y="0px"
	 viewBox="0 0 1000 1000" style="enable-background:new 0 0 1000 1000;" xml:space="preserve">
<style type="text/css">
	.st0{fill:#6CB380;}
	.st1{fill:#FFFFFF;}
</style>
<path class="st0" d="M869.2,1000H130.8C58.6,1000,0,941.4,0,869.2V130.8C0,58.6,58.6,0,130.8,0h738.4C941.4,0,1000,58.6,1000,130.8
	v738.4C1000,941.4,941.4,1000,869.2,1000z"/>
<g>
	<path class="st1" d="M434.1,151.5c-0.1,0.3-0.1,0.5-0.2,0.8c-0.5,1.6-29.1,102.3-44.7,219.7c57.4-35.8,130.8-69.8,219.1-101.5
		c80.1-28.7,142.6-44.6,148.8-46.2l12.4-3.6c-70.9-68.5-163.6-107-262.6-108.7c-21.6-0.4-43,1-63.9,4.1L434.1,151.5z"/>
	<path class="st1" d="M164.9,383.3c0.2,0.2,0.4,0.4,0.6,0.6c0.5,0.5,46.4,48,111.8,103.3c19.3,16.3,38.2,31.6,56.8,45.9
		c-2.4-67.7,4.9-148.4,21.6-240.9c15.2-83.7,32.6-145.8,34.4-152l3.3-13.4C332.8,144,277,175.9,230.5,220.9
		c-40.7,39.3-71.7,86-91.8,137.2L164.9,383.3z"/>
	<path class="st1" d="M769.2,268.2c-0.3,0.1-0.5,0.2-0.8,0.2c-1.6,0.4-103.6,26.1-213.4,71.4c152.4,81.1,302,234.4,312.2,244.9
		l9.4,9.1c7-28.2,10.8-57.3,11.3-87c1.6-91.2-28.2-178.1-84.4-248.5L769.2,268.2z"/>
	<path class="st1" d="M230.9,731.8c0.3-0.1,0.5-0.2,0.8-0.2c1.6-0.4,103.3-26,212.9-71.2C292.4,579.2,143.2,426.3,133,415.8
		l-9.7-9.4c-6.9,28.1-10.7,57.1-11.3,86.8c-1.6,91.2,28.2,178.2,84.4,248.5L230.9,731.8z"/>
	<path class="st1" d="M835.4,617.2c-0.2-0.2-0.4-0.4-0.6-0.6c-0.5-0.5-46.4-47.9-111.8-103.3c-19.2-16.3-38.2-31.6-56.7-45.8
		c2.4,67.7-4.9,148.4-21.6,240.9c-15.2,83.8-32.7,145.8-34.4,152l-3.1,12.7c60.4-17.3,116-49.1,162.4-94
		c40.7-39.3,71.6-85.9,91.7-137L835.4,617.2z"/>
	<path class="st1" d="M566.2,849.1c0.1-0.3,0.1-0.5,0.2-0.8c0.5-1.6,29.2-102.7,44.8-220.5c-57.4,35.9-130.9,70-219.4,101.7
		c-80.1,28.7-142.6,44.6-148.8,46.2l-12.4,3.6c70.9,68.5,163.6,107,262.6,108.7c2.3,0,4.6,0.1,7,0.1c19.4,0,38.6-1.4,57.4-4.2
		L566.2,849.1z"/>
</g>
<g>
</g>
<g>
</g>
<g>
</g>
<g>
</g>
<g>
</g>
<g>
</g>
<g>
</g>
<g>
</g>
<g>
</g>
<g>
</g>
<g>
</g>
<g>
</g>
<g>
</g>
<g>
</g>
<g>
</g>
</svg>
